<svg id="Layer_1" data-name="Layer 1" xmlns="http://www.w3.org/2000/svg" viewBox="0 0 441.57 83.5">
  <defs>
    <style>
      .cls-1 {
        fill: none;
        stroke: #d2b071;
        stroke-miterlimit: 10;
      }
    </style>
  </defs><path
    class="cls-1"
    d="M290.18,394.48h-2.64L263.34,329l-21.15,65.51h-2.81L220.21,332.6q-2.57-8.43-3.72-11.22a9.14,9.14,0,0,0-3-4.1c-1.23-.88-3.28-1.38-6.13-1.49v-2.7h29.83v2.7c-3.6.23-5.9.75-6.92,1.55a4.05,4.05,0,0,0-1.52,3.37q0,1.94,2.46,9.9l14.18,46.29,20.74-63.81h3.28l23.32,63.81,12.13-42.19q2.4-8.55,2.41-11.19,0-7.74-8.27-7.73v-2.7H320.7v2.7a9.17,9.17,0,0,0-7.15,3.54q-2.34,3.19-5.91,15.32Z"
    transform="translate(-206.88 -311.48)"/><path
    class="cls-1"
    d="M359,360.79H325.51c-.16,2.3-.24,4-.24,5.15q0,12.66,4,19T341,391.31q10.65,0,15.11-9.55H359a16.38,16.38,0,0,1-7.44,9.35,23.29,23.29,0,0,1-23.64.29,24.64,24.64,0,0,1-8.88-8.7,25.63,25.63,0,0,1-3.45-13.65q0-11.37,6.68-18.9a21.39,21.39,0,0,1,16.7-7.53q9.42,0,14.59,5.74A19.63,19.63,0,0,1,359,360.79Zm-10.25-2.35a18.38,18.38,0,0,0,.18-2.4c0-3.44-1-6.1-3-8a10.41,10.41,0,0,0-7.41-2.84q-10.66,0-12.72,13.24Z"
    transform="translate(-206.88 -311.48)"/><path
    class="cls-1"
    d="M381.93,312v64.1q0,7.68.21,9.67a4,4,0,0,0,1.67,3q1.45,1.06,5.21,1.06h1.41v2.69H364.77v-2.69h1.64a9.6,9.6,0,0,0,5-1,3.85,3.85,0,0,0,1.78-2.72,91.88,91.88,0,0,0,.3-10.08V328.62q0-7.56-1.35-9.52t-6.56-2v-2.69a50.75,50.75,0,0,0,8.4-.82,30.94,30.94,0,0,0,6.65-1.64Z"
    transform="translate(-206.88 -311.48)"/><path
    class="cls-1"
    d="M438.18,380.83h2.58q-4,13.65-19.92,13.65a23.54,23.54,0,0,1-17.26-7q-7-7-7-18.46,0-11.78,7.56-19.1A24.81,24.81,0,0,1,422,342.62a24.29,24.29,0,0,1,11.43,2.73q5.21,2.72,5.21,6.65a4.53,4.53,0,0,1-1,2.75A3.29,3.29,0,0,1,434.9,356q-3.87,0-4.74-4.51a8.88,8.88,0,0,0-2.17-4.75c-1-.9-3-1.34-5.92-1.34q-7.86,0-11.81,5.44t-3.95,16.41q0,11.31,4.25,17.7t12.86,6.38Q435,391.37,438.18,380.83Z"
    transform="translate(-206.88 -311.48)"/><path
    class="cls-1"
    d="M448,368.46A25.1,25.1,0,0,1,455.41,350a26,26,0,0,1,36.39,0,25.13,25.13,0,0,1,7.38,18.4q0,12.14-7.5,19.08a25.75,25.75,0,0,1-18.11,6.94,25.38,25.38,0,0,1-18.07-7.06Q448,380.35,448,368.46Zm9.72.3q0,12.76,4.16,17.9t11.66,5.12q7.68,0,11.75-5.12t4.07-17.9q0-12.66-4-18.05t-11.78-5.39q-7.67,0-11.74,5.36T457.75,368.76Z"
    transform="translate(-206.88 -311.48)"/><path
    class="cls-1"
    d="M520.39,342.62H521a25.64,25.64,0,0,1,1.7,10.08,28.33,28.33,0,0,1,8.46-7.56,19.8,19.8,0,0,1,9.76-2.52,15.9,15.9,0,0,1,9.61,2.7,14.17,14.17,0,0,1,5.15,8.08,34.56,34.56,0,0,1,9.14-8.08,19,19,0,0,1,9.56-2.7,16.61,16.61,0,0,1,9.43,2.58q3.87,2.58,4.69,5.86a49,49,0,0,1,.82,10.61v14.41a87.35,87.35,0,0,0,.32,10.2,3.68,3.68,0,0,0,1.87,2.69c1,.59,3,.88,5.78.88v2.69h-24v-2.69a12,12,0,0,0,5.36-.85,3.66,3.66,0,0,0,1.91-2.58,82.52,82.52,0,0,0,.35-10.34v-16a35.75,35.75,0,0,0-.56-7.32,7.23,7.23,0,0,0-2.9-4.22,9.89,9.89,0,0,0-6.09-1.76,13.65,13.65,0,0,0-7.65,2.58,32.69,32.69,0,0,0-7.7,7.79v18.93c0,5.12.06,8.33.2,9.64a4.19,4.19,0,0,0,1.64,3q1.44,1.08,5.13,1.08v2.69h-23.2v-2.69c2.61,0,4.44-.27,5.47-.82a3.65,3.65,0,0,0,1.94-2.52q.38-1.69.38-10.43v-13.3a59.5,59.5,0,0,0-.5-9.17,7.83,7.83,0,0,0-3-4.86,9.69,9.69,0,0,0-6.27-2,14.06,14.06,0,0,0-7.41,2.35,33,33,0,0,0-7.7,7v20c0,5.27.07,8.55.23,9.84a3.87,3.87,0,0,0,1.76,2.93q1.51,1,5.45,1v2.69h-23.5v-2.69q3.87,0,5.42-.85a3.65,3.65,0,0,0,1.91-2.55,82.45,82.45,0,0,0,.35-10.37V361.72q0-8.19-.27-10a3.7,3.7,0,0,0-1.81-2.79c-1-.62-2.9-.94-5.6-.94v-2.69A64.51,64.51,0,0,0,520.39,342.62Z"
    transform="translate(-206.88 -311.48)"/><path
    class="cls-1"
    d="M647.77,360.79H614.32c-.16,2.3-.24,4-.24,5.15q0,12.66,4,19t11.8,6.35q10.67,0,15.12-9.55h2.81a16.38,16.38,0,0,1-7.44,9.35,23.29,23.29,0,0,1-23.64.29,24.64,24.64,0,0,1-8.88-8.7,25.63,25.63,0,0,1-3.45-13.65q0-11.37,6.68-18.9a21.37,21.37,0,0,1,16.69-7.53q9.43,0,14.59,5.74A19.59,19.59,0,0,1,647.77,360.79Zm-10.25-2.35a18.38,18.38,0,0,0,.18-2.4c0-3.44-1-6.1-3-8a10.41,10.41,0,0,0-7.41-2.84q-10.66,0-12.72,13.24Z"
    transform="translate(-206.88 -311.48)"/></svg>
